<svg width="40" height="40" viewBox="0 0 40 40" fill="none" xmlns="http://www.w3.org/2000/svg">
<path d="M14.2781 26V16.032L12.1661 16.688L11.8621 15.664L14.5981 14.72H15.5261V26H14.2781ZM26.2844 24.512C25.4098 25.632 24.2684 26.192 22.8604 26.192C21.4524 26.192 20.3111 25.6373 19.4364 24.528C18.5724 23.408 18.1404 22.0427 18.1404 20.432V20.4C18.1404 18.7893 18.5778 17.424 19.4524 16.304C20.3378 15.1733 21.4844 14.608 22.8924 14.608C24.3004 14.608 25.4364 15.168 26.3004 16.288C27.1644 17.3973 27.5964 18.7573 27.5964 20.368V20.4C27.5964 22.0107 27.1591 23.3813 26.2844 24.512ZM20.3964 23.68C21.0364 24.5867 21.8684 25.04 22.8924 25.04C23.9164 25.04 24.7378 24.592 25.3564 23.696C25.9751 22.8 26.2844 21.712 26.2844 20.432V20.4C26.2844 19.1307 25.9644 18.0427 25.3244 17.136C24.6951 16.2187 23.8738 15.76 22.8604 15.76C21.8471 15.76 21.0258 16.208 20.3964 17.104C19.7671 18 19.4524 19.088 19.4524 20.368V20.4C19.4524 21.6693 19.7671 22.7627 20.3964 23.68Z" fill="white"/>
<path d="M40 20C40 31.0457 31.0457 40 20 40C8.9543 40 0 31.0457 0 20C0 8.9543 8.9543 0 20 0C31.0457 0 40 8.9543 40 20ZM5 20C5 28.2843 11.7157 35 20 35C28.2843 35 35 28.2843 35 20C35 11.7157 28.2843 5 20 5C11.7157 5 5 11.7157 5 20Z" fill="white"/>
<path d="M20 4.99672V0" stroke="#212529" stroke-width="0.5"/>
</svg>
